<svg width="32" height="32" viewBox="0 0 32 32" fill="none" xmlns="http://www.w3.org/2000/svg">
  <rect width="32" height="32" rx="8" fill="#0066FF" fill-opacity="0.1"/>
  <rect x="4" y="4" width="24" height="24" rx="6" fill="#0066FF"/>
  <path d="M16 8C11.582 8 8 11.582 8 16C8 20.418 11.582 24 16 24C20.418 24 24 20.418 24 16C24 11.582 20.418 8 16 8ZM16 10C19.309 10 22 12.691 22 16C22 19.309 19.309 22 16 22C12.691 22 10 19.309 10 16C10 12.691 12.691 10 16 10Z" fill="white"/>
  <path d="M16 12C13.791 12 12 13.791 12 16C12 18.209 13.791 20 16 20C18.209 20 20 18.209 20 16C20 13.791 18.209 12 16 12ZM16 14C17.105 14 18 14.895 18 16C18 17.105 17.105 18 16 18C14.895 18 14 17.105 14 16C14 14.895 14.895 14 16 14Z" fill="white"/>
  <path d="M16 15C15.448 15 15 15.448 15 16C15 16.552 15.448 17 16 17C16.552 17 17 16.552 17 16C17 15.448 16.552 15 16 15Z" fill="#0066FF"/>
</svg> 