<svg width="32" height="32" viewBox="0 0 32 32" fill="none" xmlns="http://www.w3.org/2000/svg">
  <rect width="32" height="32" rx="8" fill="#FEDC90" fill-opacity="0.5"/>
  <rect x="4" y="4" width="24" height="24" rx="6" fill="#FEDC90"/>
  <path d="M16 6C10.477 6 6 10.477 6 16C6 21.523 10.477 26 16 26C21.523 26 26 21.523 26 16C26 10.477 21.523 6 16 6ZM16.5 10C17.328 10 18 10.672 18 11.5C18 12.328 17.328 13 16.5 13C15.672 13 15 12.328 15 11.5C15 10.672 15.672 10 16.5 10ZM12.5 12C13.328 12 14 12.672 14 13.5C14 14.328 13.328 15 12.5 15C11.672 15 11 14.328 11 13.5C11 12.672 11.672 12 12.5 12ZM20.5 12C21.328 12 22 12.672 22 13.5C22 14.328 21.328 15 20.5 15C19.672 15 19 14.328 19 13.5C19 12.672 19.672 12 20.5 12ZM16 14C18.761 14 21 16.239 21 19C21 21.761 18.761 24 16 24C13.239 24 11 21.761 11 19C11 16.239 13.239 14 16 14Z" fill="#D1884F"/>
  <path d="M16 16C14.343 16 13 17.343 13 19C13 20.657 14.343 22 16 22C17.657 22 19 20.657 19 19C19 17.343 17.657 16 16 16ZM14.5 18C14.776 18 15 18.224 15 18.5C15 18.776 14.776 19 14.5 19C14.224 19 14 18.776 14 18.5C14 18.224 14.224 18 14.5 18ZM17.5 18C17.776 18 18 18.224 18 18.5C18 18.776 17.776 19 17.5 19C17.224 19 17 18.776 17 18.5C17 18.224 17.224 18 17.5 18Z" fill="#D1884F"/>
</svg> 