<svg width="32" height="32" viewBox="0 0 32 32" fill="none" xmlns="http://www.w3.org/2000/svg">
  <rect width="32" height="32" rx="8" fill="#6366F1" fill-opacity="0.1"/>
  <rect x="4" y="4" width="24" height="24" rx="6" fill="#6366F1"/>
  <path d="M16 8C11.582 8 8 11.582 8 16C8 20.418 11.582 24 16 24C20.418 24 24 20.418 24 16C24 11.582 20.418 8 16 8ZM16 10C19.309 10 22 12.691 22 16C22 19.309 19.309 22 16 22C12.691 22 10 19.309 10 16C10 12.691 12.691 10 16 10Z" fill="white"/>
  <path d="M13 13L19 19" stroke="white" stroke-width="2" stroke-linecap="round"/>
  <path d="M19 13L13 19" stroke="white" stroke-width="2" stroke-linecap="round"/>
</svg> 