<svg width="32" height="32" viewBox="0 0 32 32" fill="none" xmlns="http://www.w3.org/2000/svg">
  <circle cx="16" cy="16" r="16" fill="#F5AC37" fill-opacity="0.1"/>
  <circle cx="16" cy="16" r="14" fill="#F5AC37"/>
  <path d="M9.277 16.942H11.83C11.83 18.366 12.973 19.509 14.397 19.509H19.531V16.942H21.83V14.375H19.531V11.808H14.397C12.973 11.808 11.83 12.951 11.83 14.375H9.277V16.942ZM14.397 14.375H17.107V16.942H14.397C13.685 16.942 13.107 16.364 13.107 15.652C13.107 14.94 13.685 14.375 14.397 14.375Z" fill="white"/>
  <path d="M16 6C10.477 6 6 10.477 6 16C6 21.523 10.477 26 16 26C21.523 26 26 21.523 26 16C26 10.477 21.523 6 16 6ZM16 23.5C11.858 23.5 8.5 20.142 8.5 16C8.5 11.858 11.858 8.5 16 8.5C20.142 8.5 23.5 11.858 23.5 16C23.5 20.142 20.142 23.5 16 23.5Z" fill="white"/>
</svg> 