<svg width="32" height="32" viewBox="0 0 32 32" fill="none" xmlns="http://www.w3.org/2000/svg">
  <circle cx="16" cy="16" r="16" fill="#2775CA" fill-opacity="0.1"/>
  <circle cx="16" cy="16" r="14" fill="#2775CA"/>
  <path d="M16 6C10.48 6 6 10.48 6 16C6 21.52 10.48 26 16 26C21.52 26 26 21.52 26 16C26 10.48 21.52 6 16 6ZM16.64 20.32C14.28 20.32 12.36 18.4 12.36 16.04C12.36 13.68 14.28 11.76 16.64 11.76C18.08 11.76 19.32 12.48 20.04 13.6L18.44 14.6C18.04 13.96 17.4 13.56 16.64 13.56C15.28 13.56 14.16 14.68 14.16 16.04C14.16 17.4 15.28 18.52 16.64 18.52C17.4 18.52 18.04 18.12 18.44 17.48L20.04 18.48C19.32 19.6 18.08 20.32 16.64 20.32ZM16 9.2C16.44 9.2 16.8 9.56 16.8 10C16.8 10.44 16.44 10.8 16 10.8C15.56 10.8 15.2 10.44 15.2 10C15.2 9.56 15.56 9.2 16 9.2ZM16 22.8C15.56 22.8 15.2 22.44 15.2 22C15.2 21.56 15.56 21.2 16 21.2C16.44 21.2 16.8 21.56 16.8 22C16.8 22.44 16.44 22.8 16 22.8ZM22 16.8C21.56 16.8 21.2 16.44 21.2 16C21.2 15.56 21.56 15.2 22 15.2C22.44 15.2 22.8 15.56 22.8 16C22.8 16.44 22.44 16.8 22 16.8ZM10 16.8C9.56 16.8 9.2 16.44 9.2 16C9.2 15.56 9.56 15.2 10 15.2C10.44 15.2 10.8 15.56 10.8 16C10.8 16.44 10.44 16.8 10 16.8Z" fill="white"/>
</svg> 