<svg width="32" height="32" viewBox="0 0 32 32" fill="none" xmlns="http://www.w3.org/2000/svg">
  <circle cx="16" cy="16" r="16" fill="#26A17B" fill-opacity="0.1"/>
  <circle cx="16" cy="16" r="14" fill="#26A17B"/>
  <path d="M17.922 17.383V20.174H15.349V17.398H11.512V15.594H20.488V17.398L17.922 17.383Z" fill="white"/>
  <path d="M16.026 6C10.485 6 6 10.485 6 16.026C6 21.567 10.485 26.052 16.026 26.052C21.567 26.052 26.052 21.567 26.052 16.026C26.052 10.485 21.567 6 16.026 6ZM20.488 13.79V14.692H17.937C17.937 14.692 17.937 12.888 17.937 12.873C17.937 12.217 17.412 11.677 16.756 11.677H15.296C14.64 11.677 14.115 12.217 14.115 12.873C14.115 12.888 14.115 14.692 14.115 14.692H11.512V13.79H9.708V21.978H22.292V13.79H20.488Z" fill="white"/>
</svg> 